<mxfile host="app.diagrams.net" modified="2023-10-02T16:15:58.505Z" agent="Mozilla/5.0 (X11; Linux x86_64; rv:109.0) Gecko/20100101 Firefox/114.0" etag="XSaD04bx7zt7FLSRKK4F" version="22.0.0" type="github">
  <diagram name="P치gina-1" id="eYK5z6KUy4dlXcbPyyue">
    <mxGraphModel dx="2261" dy="795" grid="1" gridSize="10" guides="1" tooltips="1" connect="1" arrows="1" fold="1" page="1" pageScale="1" pageWidth="827" pageHeight="1169" math="0" shadow="0">
      <root>
        <mxCell id="0" />
        <mxCell id="1" parent="0" />
        <mxCell id="MCUzM7KCsDZv7bBcKQVO-14" style="edgeStyle=orthogonalEdgeStyle;rounded=0;orthogonalLoop=1;jettySize=auto;html=1;exitX=0.5;exitY=0;exitDx=0;exitDy=0;" edge="1" source="MCUzM7KCsDZv7bBcKQVO-19" parent="1">
          <mxGeometry relative="1" as="geometry">
            <mxPoint x="590" y="180" as="targetPoint" />
          </mxGeometry>
        </mxCell>
        <mxCell id="MCUzM7KCsDZv7bBcKQVO-21" style="edgeStyle=orthogonalEdgeStyle;rounded=0;orthogonalLoop=1;jettySize=auto;html=1;exitX=0;exitY=0;exitDx=0;exitDy=0;entryX=0.5;entryY=1;entryDx=0;entryDy=0;endArrow=none;endFill=0;" edge="1" parent="1" source="MCUzM7KCsDZv7bBcKQVO-16" target="MCUzM7KCsDZv7bBcKQVO-20">
          <mxGeometry relative="1" as="geometry" />
        </mxCell>
        <mxCell id="MCUzM7KCsDZv7bBcKQVO-24" style="edgeStyle=orthogonalEdgeStyle;rounded=0;orthogonalLoop=1;jettySize=auto;html=1;exitX=0;exitY=1;exitDx=0;exitDy=0;" edge="1" parent="1" source="MCUzM7KCsDZv7bBcKQVO-16">
          <mxGeometry relative="1" as="geometry">
            <mxPoint x="530" y="320" as="targetPoint" />
          </mxGeometry>
        </mxCell>
        <mxCell id="MCUzM7KCsDZv7bBcKQVO-25" style="edgeStyle=orthogonalEdgeStyle;rounded=0;orthogonalLoop=1;jettySize=auto;html=1;exitX=1;exitY=1;exitDx=0;exitDy=0;" edge="1" parent="1" source="MCUzM7KCsDZv7bBcKQVO-16">
          <mxGeometry relative="1" as="geometry">
            <mxPoint x="650" y="320" as="targetPoint" />
          </mxGeometry>
        </mxCell>
        <mxCell id="MCUzM7KCsDZv7bBcKQVO-51" style="edgeStyle=orthogonalEdgeStyle;rounded=0;orthogonalLoop=1;jettySize=auto;html=1;exitX=0.5;exitY=0;exitDx=0;exitDy=0;endArrow=none;endFill=0;" edge="1" parent="1" source="MCUzM7KCsDZv7bBcKQVO-16" target="MCUzM7KCsDZv7bBcKQVO-19">
          <mxGeometry relative="1" as="geometry" />
        </mxCell>
        <mxCell id="MCUzM7KCsDZv7bBcKQVO-56" style="edgeStyle=orthogonalEdgeStyle;rounded=0;orthogonalLoop=1;jettySize=auto;html=1;endArrow=none;endFill=0;" edge="1" parent="1" source="MCUzM7KCsDZv7bBcKQVO-57">
          <mxGeometry relative="1" as="geometry">
            <mxPoint x="1110" y="270" as="targetPoint" />
          </mxGeometry>
        </mxCell>
        <mxCell id="MCUzM7KCsDZv7bBcKQVO-73" style="edgeStyle=orthogonalEdgeStyle;rounded=0;orthogonalLoop=1;jettySize=auto;html=1;exitX=0;exitY=0.5;exitDx=0;exitDy=0;entryX=1;entryY=0.5;entryDx=0;entryDy=0;endArrow=none;endFill=0;" edge="1" parent="1" source="MCUzM7KCsDZv7bBcKQVO-16" target="MCUzM7KCsDZv7bBcKQVO-72">
          <mxGeometry relative="1" as="geometry" />
        </mxCell>
        <mxCell id="MCUzM7KCsDZv7bBcKQVO-16" value="Coche" style="rounded=0;whiteSpace=wrap;html=1;fillColor=#d5e8d4;strokeColor=#82b366;" vertex="1" parent="1">
          <mxGeometry x="530" y="240" width="120" height="60" as="geometry" />
        </mxCell>
        <mxCell id="MCUzM7KCsDZv7bBcKQVO-17" value="color" style="ellipse;whiteSpace=wrap;html=1;fillColor=#dae8fc;strokeColor=#6c8ebf;" vertex="1" parent="1">
          <mxGeometry x="490" y="310" width="80" height="60" as="geometry" />
        </mxCell>
        <mxCell id="MCUzM7KCsDZv7bBcKQVO-20" value="&lt;u&gt;m치tricula&lt;/u&gt;" style="ellipse;whiteSpace=wrap;html=1;fillColor=#fff2cc;strokeColor=#d6b656;" vertex="1" parent="1">
          <mxGeometry x="490" y="140" width="80" height="50" as="geometry" />
        </mxCell>
        <mxCell id="MCUzM7KCsDZv7bBcKQVO-26" value="precio" style="ellipse;whiteSpace=wrap;html=1;fillColor=#dae8fc;strokeColor=#6c8ebf;" vertex="1" parent="1">
          <mxGeometry x="605" y="310" width="90" height="60" as="geometry" />
        </mxCell>
        <mxCell id="MCUzM7KCsDZv7bBcKQVO-33" style="edgeStyle=orthogonalEdgeStyle;rounded=0;orthogonalLoop=1;jettySize=auto;html=1;exitX=0;exitY=0;exitDx=0;exitDy=0;entryX=0.5;entryY=1;entryDx=0;entryDy=0;endArrow=none;endFill=0;" edge="1" parent="1" source="MCUzM7KCsDZv7bBcKQVO-37" target="MCUzM7KCsDZv7bBcKQVO-41">
          <mxGeometry relative="1" as="geometry" />
        </mxCell>
        <mxCell id="MCUzM7KCsDZv7bBcKQVO-34" style="edgeStyle=orthogonalEdgeStyle;rounded=0;orthogonalLoop=1;jettySize=auto;html=1;exitX=1;exitY=0;exitDx=0;exitDy=0;" edge="1" parent="1" source="MCUzM7KCsDZv7bBcKQVO-37">
          <mxGeometry relative="1" as="geometry">
            <mxPoint x="160" y="140" as="targetPoint" />
          </mxGeometry>
        </mxCell>
        <mxCell id="MCUzM7KCsDZv7bBcKQVO-35" style="edgeStyle=orthogonalEdgeStyle;rounded=0;orthogonalLoop=1;jettySize=auto;html=1;exitX=0;exitY=1;exitDx=0;exitDy=0;" edge="1" parent="1" source="MCUzM7KCsDZv7bBcKQVO-37">
          <mxGeometry relative="1" as="geometry">
            <mxPoint x="40" y="340" as="targetPoint" />
          </mxGeometry>
        </mxCell>
        <mxCell id="MCUzM7KCsDZv7bBcKQVO-36" style="edgeStyle=orthogonalEdgeStyle;rounded=0;orthogonalLoop=1;jettySize=auto;html=1;exitX=1;exitY=1;exitDx=0;exitDy=0;" edge="1" parent="1" source="MCUzM7KCsDZv7bBcKQVO-37">
          <mxGeometry relative="1" as="geometry">
            <mxPoint x="160" y="340" as="targetPoint" />
          </mxGeometry>
        </mxCell>
        <mxCell id="MCUzM7KCsDZv7bBcKQVO-44" style="edgeStyle=orthogonalEdgeStyle;rounded=0;orthogonalLoop=1;jettySize=auto;html=1;exitX=0;exitY=0.5;exitDx=0;exitDy=0;" edge="1" parent="1" source="MCUzM7KCsDZv7bBcKQVO-37">
          <mxGeometry relative="1" as="geometry">
            <mxPoint x="-20" y="270" as="targetPoint" />
          </mxGeometry>
        </mxCell>
        <mxCell id="MCUzM7KCsDZv7bBcKQVO-69" style="edgeStyle=orthogonalEdgeStyle;rounded=0;orthogonalLoop=1;jettySize=auto;html=1;exitX=0.5;exitY=0;exitDx=0;exitDy=0;endArrow=none;endFill=0;" edge="1" parent="1" source="MCUzM7KCsDZv7bBcKQVO-37" target="MCUzM7KCsDZv7bBcKQVO-46">
          <mxGeometry relative="1" as="geometry" />
        </mxCell>
        <mxCell id="MCUzM7KCsDZv7bBcKQVO-71" style="edgeStyle=orthogonalEdgeStyle;rounded=0;orthogonalLoop=1;jettySize=auto;html=1;exitX=1;exitY=0.5;exitDx=0;exitDy=0;endArrow=none;endFill=0;" edge="1" parent="1" source="MCUzM7KCsDZv7bBcKQVO-37" target="MCUzM7KCsDZv7bBcKQVO-72">
          <mxGeometry relative="1" as="geometry">
            <mxPoint x="330" y="270" as="targetPoint" />
          </mxGeometry>
        </mxCell>
        <mxCell id="MCUzM7KCsDZv7bBcKQVO-37" value="Cliente" style="rounded=0;whiteSpace=wrap;html=1;fillColor=#d5e8d4;strokeColor=#82b366;" vertex="1" parent="1">
          <mxGeometry x="40" y="240" width="120" height="60" as="geometry" />
        </mxCell>
        <mxCell id="MCUzM7KCsDZv7bBcKQVO-38" value="&lt;u&gt;c칩digo interno&lt;/u&gt;" style="ellipse;whiteSpace=wrap;html=1;fillColor=#fff2cc;strokeColor=#d6b656;" vertex="1" parent="1">
          <mxGeometry y="330" width="80" height="60" as="geometry" />
        </mxCell>
        <mxCell id="MCUzM7KCsDZv7bBcKQVO-39" value="direcci칩n" style="ellipse;whiteSpace=wrap;html=1;fillColor=#dae8fc;strokeColor=#6c8ebf;" vertex="1" parent="1">
          <mxGeometry x="120" y="140" width="80" height="50" as="geometry" />
        </mxCell>
        <mxCell id="MCUzM7KCsDZv7bBcKQVO-41" value="nombre" style="ellipse;whiteSpace=wrap;html=1;fillColor=#dae8fc;strokeColor=#6c8ebf;" vertex="1" parent="1">
          <mxGeometry y="140" width="80" height="50" as="geometry" />
        </mxCell>
        <mxCell id="MCUzM7KCsDZv7bBcKQVO-42" value="num.telefono" style="ellipse;whiteSpace=wrap;html=1;fillColor=#dae8fc;strokeColor=#6c8ebf;" vertex="1" parent="1">
          <mxGeometry x="115" y="330" width="90" height="60" as="geometry" />
        </mxCell>
        <mxCell id="MCUzM7KCsDZv7bBcKQVO-46" value="ciudad" style="ellipse;whiteSpace=wrap;html=1;fillColor=#dae8fc;strokeColor=#6c8ebf;" vertex="1" parent="1">
          <mxGeometry x="60" y="180" width="80" height="50" as="geometry" />
        </mxCell>
        <mxCell id="MCUzM7KCsDZv7bBcKQVO-47" value="&lt;u&gt;NIF&lt;/u&gt;" style="ellipse;whiteSpace=wrap;html=1;fillColor=#fff2cc;strokeColor=#d6b656;" vertex="1" parent="1">
          <mxGeometry x="-90" y="245" width="80" height="50" as="geometry" />
        </mxCell>
        <mxCell id="MCUzM7KCsDZv7bBcKQVO-19" value="marca" style="ellipse;whiteSpace=wrap;html=1;fillColor=#dae8fc;strokeColor=#6c8ebf;" vertex="1" parent="1">
          <mxGeometry x="555" y="180" width="70" height="50" as="geometry" />
        </mxCell>
        <mxCell id="MCUzM7KCsDZv7bBcKQVO-50" value="" style="edgeStyle=orthogonalEdgeStyle;rounded=0;orthogonalLoop=1;jettySize=auto;html=1;exitX=1;exitY=0;exitDx=0;exitDy=0;endArrow=none;endFill=0;" edge="1" parent="1" source="MCUzM7KCsDZv7bBcKQVO-16" target="MCUzM7KCsDZv7bBcKQVO-18">
          <mxGeometry relative="1" as="geometry">
            <mxPoint x="650" y="120" as="targetPoint" />
            <mxPoint x="650" y="240" as="sourcePoint" />
          </mxGeometry>
        </mxCell>
        <mxCell id="MCUzM7KCsDZv7bBcKQVO-18" value="modelo" style="ellipse;whiteSpace=wrap;html=1;fillColor=#dae8fc;strokeColor=#6c8ebf;" vertex="1" parent="1">
          <mxGeometry x="610" y="140" width="80" height="50" as="geometry" />
        </mxCell>
        <mxCell id="MCUzM7KCsDZv7bBcKQVO-58" value="" style="edgeStyle=orthogonalEdgeStyle;rounded=0;orthogonalLoop=1;jettySize=auto;html=1;endArrow=none;endFill=0;" edge="1" parent="1" source="MCUzM7KCsDZv7bBcKQVO-16" target="MCUzM7KCsDZv7bBcKQVO-57">
          <mxGeometry relative="1" as="geometry">
            <mxPoint x="1020" y="270" as="targetPoint" />
            <mxPoint x="650" y="270" as="sourcePoint" />
          </mxGeometry>
        </mxCell>
        <mxCell id="MCUzM7KCsDZv7bBcKQVO-60" style="edgeStyle=orthogonalEdgeStyle;rounded=0;orthogonalLoop=1;jettySize=auto;html=1;exitX=1;exitY=0;exitDx=0;exitDy=0;" edge="1" parent="1" source="MCUzM7KCsDZv7bBcKQVO-57">
          <mxGeometry relative="1" as="geometry">
            <mxPoint x="990" y="190" as="targetPoint" />
          </mxGeometry>
        </mxCell>
        <mxCell id="MCUzM7KCsDZv7bBcKQVO-61" style="edgeStyle=orthogonalEdgeStyle;rounded=0;orthogonalLoop=1;jettySize=auto;html=1;exitX=0;exitY=0;exitDx=0;exitDy=0;" edge="1" parent="1" source="MCUzM7KCsDZv7bBcKQVO-57">
          <mxGeometry relative="1" as="geometry">
            <mxPoint x="860" y="190" as="targetPoint" />
          </mxGeometry>
        </mxCell>
        <mxCell id="MCUzM7KCsDZv7bBcKQVO-81" style="edgeStyle=orthogonalEdgeStyle;rounded=0;orthogonalLoop=1;jettySize=auto;html=1;exitX=0;exitY=1;exitDx=0;exitDy=0;" edge="1" parent="1" source="MCUzM7KCsDZv7bBcKQVO-57">
          <mxGeometry relative="1" as="geometry">
            <mxPoint x="860" y="310" as="targetPoint" />
          </mxGeometry>
        </mxCell>
        <mxCell id="MCUzM7KCsDZv7bBcKQVO-83" style="edgeStyle=orthogonalEdgeStyle;rounded=0;orthogonalLoop=1;jettySize=auto;html=1;exitX=1;exitY=1;exitDx=0;exitDy=0;" edge="1" parent="1" source="MCUzM7KCsDZv7bBcKQVO-57">
          <mxGeometry relative="1" as="geometry">
            <mxPoint x="980" y="310" as="targetPoint" />
          </mxGeometry>
        </mxCell>
        <mxCell id="MCUzM7KCsDZv7bBcKQVO-57" value="revisa" style="rhombus;whiteSpace=wrap;html=1;fillColor=#a20025;fontColor=#ffffff;strokeColor=#6F0000;" vertex="1" parent="1">
          <mxGeometry x="880" y="230" width="80" height="80" as="geometry" />
        </mxCell>
        <mxCell id="MCUzM7KCsDZv7bBcKQVO-59" value="Concesionario" style="rounded=0;whiteSpace=wrap;html=1;fillColor=#d5e8d4;strokeColor=#82b366;" vertex="1" parent="1">
          <mxGeometry x="1110" y="240" width="120" height="60" as="geometry" />
        </mxCell>
        <mxCell id="MCUzM7KCsDZv7bBcKQVO-64" value="cambio filtro" style="ellipse;whiteSpace=wrap;html=1;fillColor=#dae8fc;strokeColor=#6c8ebf;" vertex="1" parent="1">
          <mxGeometry x="820" y="140" width="80" height="60" as="geometry" />
        </mxCell>
        <mxCell id="MCUzM7KCsDZv7bBcKQVO-65" value="cambio aceite" style="ellipse;whiteSpace=wrap;html=1;fillColor=#dae8fc;strokeColor=#6c8ebf;" vertex="1" parent="1">
          <mxGeometry x="950" y="140" width="80" height="60" as="geometry" />
        </mxCell>
        <mxCell id="MCUzM7KCsDZv7bBcKQVO-72" value="compra" style="rhombus;whiteSpace=wrap;html=1;fillColor=#a20025;fontColor=#ffffff;strokeColor=#6F0000;" vertex="1" parent="1">
          <mxGeometry x="290" y="230" width="80" height="80" as="geometry" />
        </mxCell>
        <mxCell id="MCUzM7KCsDZv7bBcKQVO-75" value="1:1" style="text;html=1;align=center;verticalAlign=middle;resizable=0;points=[];autosize=1;strokeColor=none;fillColor=none;" vertex="1" parent="1">
          <mxGeometry x="210" y="240" width="40" height="30" as="geometry" />
        </mxCell>
        <mxCell id="MCUzM7KCsDZv7bBcKQVO-76" value="1:N" style="text;html=1;align=center;verticalAlign=middle;resizable=0;points=[];autosize=1;strokeColor=none;fillColor=none;" vertex="1" parent="1">
          <mxGeometry x="419" y="240" width="40" height="30" as="geometry" />
        </mxCell>
        <mxCell id="MCUzM7KCsDZv7bBcKQVO-77" value="1:N" style="text;html=1;align=center;verticalAlign=middle;resizable=0;points=[];autosize=1;strokeColor=none;fillColor=none;" vertex="1" parent="1">
          <mxGeometry x="310" y="200" width="40" height="30" as="geometry" />
        </mxCell>
        <mxCell id="MCUzM7KCsDZv7bBcKQVO-78" value="0:N" style="text;html=1;align=center;verticalAlign=middle;resizable=0;points=[];autosize=1;strokeColor=none;fillColor=none;" vertex="1" parent="1">
          <mxGeometry x="1035" y="240" width="40" height="30" as="geometry" />
        </mxCell>
        <mxCell id="MCUzM7KCsDZv7bBcKQVO-79" value="1:N" style="text;html=1;align=center;verticalAlign=middle;resizable=0;points=[];autosize=1;strokeColor=none;fillColor=none;" vertex="1" parent="1">
          <mxGeometry x="735" y="240" width="40" height="30" as="geometry" />
        </mxCell>
        <mxCell id="MCUzM7KCsDZv7bBcKQVO-80" value="N:M" style="text;html=1;align=center;verticalAlign=middle;resizable=0;points=[];autosize=1;strokeColor=none;fillColor=none;" vertex="1" parent="1">
          <mxGeometry x="895" y="200" width="50" height="30" as="geometry" />
        </mxCell>
        <mxCell id="MCUzM7KCsDZv7bBcKQVO-84" value="cambio filro" style="ellipse;whiteSpace=wrap;html=1;fillColor=#dae8fc;strokeColor=#6c8ebf;" vertex="1" parent="1">
          <mxGeometry x="945" y="300" width="90" height="50" as="geometry" />
        </mxCell>
        <mxCell id="MCUzM7KCsDZv7bBcKQVO-85" value="codigo" style="ellipse;whiteSpace=wrap;html=1;fillColor=#fff2cc;strokeColor=#d6b656;" vertex="1" parent="1">
          <mxGeometry x="820" y="300" width="80" height="50" as="geometry" />
        </mxCell>
      </root>
    </mxGraphModel>
  </diagram>
</mxfile>
